PathFileType	4	(X/Y/Z)	C:/Users/beibeiliu/ov580/test_trc\sequence.16_training_dense_left.trc
DataRate	CameraRate	NumFrames	NumMarkers	Units	OrigDataRate	OrigDataStartFrame	OrigNumFrames
120	120	16	19	mm	120	59	88
Frame#	Time	ThumbCMC			ThumbMCP			ThumbIP			ThumbTip			IndexMCP			IndexPIP			IndexTip			MiddleMCP			MiddlePIP			MiddleTip			RingMCP			RingPIP			RingTip			PinkyMCP			PinkyPIP			PinkyTip			BackHand1			BackHand2			BackHand3	
		X0	Y0	Z0	X1	Y1	Z1	X2	Y2	Z2	X3	Y3	Z3	X4	Y4	Z4	X5	Y5	Z5	X6	Y6	Z6	X7	Y7	Z7	X8	Y8	Z8	X9	Y9	Z9	X10	Y10	Z10	X11	Y11	Z11	X12	Y12	Z12	X13	Y13	Z13	X14	Y14	Z14	X15	Y15	Z15	X16	Y16	Z16	X17	Y17	Z17	X18	Y18	Z18	
58	0.483333	-233.737	77.1015	26.1474	-209.706	74.4023	36.0166	-189.515	79.5895	37.9578	-169.205	85.7951	39.9158	-193.972	36.8734	-11.7999	-172.93	26.478	-17.9117	-147.642	15.6091	-19.5707	-207.054	11.7049	-13.2028	-185.026	-6.87592	-22.4234	-165.832	-24.0398	-24.9248	-219.151	-0.160423	-2.97744	-201.06	-18.9201	-8.864	-186.35	-29.2688	-10.5518	-234.819	-12.346	15.4686	-222.595	-27.0565	16.4975	-210.26	-45.3549	19.6277	-247.541	26.7725	4.47291	-271.618	40.7773	13.0696	-246.501	52.9092	1.83971	
59	0.491667	-243.902	73.1824	26.9608	-218.792	78.4672	34.9939	-199.776	88.233	35.2538	-181.347	97.9081	35.7074	-191.006	45.1961	-14.0048	-167.353	43.4015	-19.5579	-149.088	37.3682	-19.8708	-197.234	13.9343	-12.6412	-176.621	6.55322	-20.07	-152.816	-7.843	-20.0065	-205.234	-0.921161	-0.416341	-183.32	-11.043	-5.71968	-164.032	-22.5145	-7.18151	-219.609	-11.7833	22.0401	-201.128	-28.6023	26.1079	-187.824	-36.5706	28.5477	-247.593	15.7147	11.0217	-269.341	24.0113	16.5111	-248.876	47.9658	3.46119	
60	0.5	-251.388	66.963	26.6927	-228.739	78.4537	32.8408	-209.484	96.4501	30.8285	-197.3	106.79	30.2428	-199.791	49.4797	-12.4784	-175.695	51.6087	-21.8663	-148.671	54.1526	-25.1181	-193.721	24.3817	-13.8845	-172.047	17.6869	-20.0796	-141.63	14.8068	-25.2728	-197.592	3.97638	0.926942	-174.33	-4.08967	-4.00383	-154.451	-4.99799	-7.09535	-204.116	-8.84684	23.5124	-187.071	-19.4112	29.2671	-170.352	-28.0742	31.6095	-236.78	12.667	11.0754	-264.687	15.3997	21.6741	-249.976	35.3103	8.30191	
61	0.508333	-255.31	61.3819	27.5686	-238.931	80.632	32.958	-226.815	99.104	31.0161	-215.338	117.042	28.4871	-203.234	52.1264	-14.3106	-180.621	61.2069	-25.5476	-160.187	73.578	-30.4146	-190.606	29.9796	-15.0451	-166.182	28.8547	-23.3812	-140.692	32.192	-28.878	-191.141	8.89241	3.04478	-167.299	9.10402	-6.84954	-144.206	8.57543	-8.77722	-191.096	-5.44346	27.0549	-171.093	-7.66372	29.2085	-152.823	-7.87046	30.9324	-228.901	9.10655	14.0739	-253.493	7.20254	24.7632	-252.591	33.1285	8.3092	
62	0.516667	-257.958	53.7314	31.3818	-244.932	79.5754	33.2029	-238.481	96.4163	32.3908	-229.091	117.969	28.479	-205.274	59.758	-16.4069	-189.393	71.5397	-26.6695	-167.172	85.9473	-32.2383	-190.933	37.6317	-14.1087	-166.602	44.5171	-27.2926	-142.277	48.0016	-31.7747	-182.415	19.2097	1.31415	-163.217	24.2577	-9.15556	-138.688	29.8406	-13.2169	-180.226	6.38276	26.3951	-159.619	7.75437	29.3313	-138.85	10.1836	31.1431	-225.809	9.72855	17.2483	-244.811	4.26947	28.7669	-246.36	27.1512	12.8056	
63	0.525	-254.915	45.7893	33.809	-251.709	72.692	35.1791	-247.596	92.9983	32.0452	-242.568	114.611	29.4124	-209.446	62.0684	-15.3254	-194.125	78.6003	-28.6026	-179.767	96.5823	-35.9348	-187.457	43.1559	-14.6862	-170.159	52.8427	-27.5403	-147.598	66.5587	-36.811	-180.074	28.9309	2.26251	-158.403	37.9036	-11.0582	-138.914	45.6354	-16.1614	-172.807	18.6911	24.2	-151.38	23.3428	28.2131	-131.838	33.898	25.3113	-215.009	12.439	19.2145	-230.096	-4.32548	33.614	-239.369	22.8919	13.22	
64	0.533333	-247.92	39.0155	33.482	-253.784	64.9865	36.9316	-255.134	91.2842	28.8813	-252.159	108.389	27.7691	-209.947	61.2315	-19.2055	-200.181	79.6433	-34.0199	-193.737	97.0375	-41.5127	-189.024	46.7835	-18.1273	-169.243	59.1083	-32.9544	-150.541	74.1002	-43.3148	-172.276	34.1997	-1.18336	-156.709	45.0255	-14.3483	-140.692	59.3046	-24.2163	-163.753	30.6152	21.3114	-143.982	38.7299	21.827	-127.47	48.4342	22.8512	-202.974	13.0207	20.5603	-216.598	-1.33413	36.2355	-231.045	19.935	17.4973	
65	0.541667	-243.37	36.5338	33.087	-250.316	65.1577	29.9897	-255.604	82.0597	27.7276	-258.68	103.146	20.552	-214.121	53.7696	-21.0091	-204.724	72.5233	-40.9872	-198.8	92.2819	-54.6221	-188.629	44.9524	-23.2943	-170.257	56.1436	-39.7624	-155.379	69.7761	-51.787	-172.655	40.2342	-8.5794	-156.009	50.3169	-23.501	-141.707	61.8438	-33.776	-156.57	39.1676	14.9889	-139.965	48.3766	15.811	-127.1	62.3712	6.01334	-195.677	15.4323	22.0211	-202.249	-0.221427	35.0999	-221.504	14.5823	18.1094	
66	0.55	-241.272	35.9419	29.6111	-251.549	59.9425	25.899	-257.724	79.6948	16.6581	-264.572	98.9798	9.08976	-215.922	45.6848	-27.7114	-211.141	59.5787	-51.0868	-207.928	78.5395	-67.6018	-186.381	38.3041	-29.5989	-178.204	45.9677	-49.3685	-160.857	64.4895	-67.5098	-170.156	38.6972	-14.771	-154.891	45.6291	-31.4184	-147.454	56.8719	-45.7109	-156.825	41.3426	9.98455	-141.837	54.2349	1.82016	-126.473	66.9632	-3.06746	-190.881	16.8501	18.4971	-195.209	5.87439	36.2192	-217.111	13.034	16.9323	
67	0.558333	-240.714	36.3786	25.3774	-250.102	60.1851	19.4651	-260.707	77.8256	6.53309	-262.146	96.5041	-5.25613	-213.848	37.833	-33.5102	-214.231	46.7416	-57.5597	-213.877	61.1502	-77.5113	-187.287	32.7618	-32.7061	-176.735	37.3504	-57.4139	-164.879	49.7009	-76.4095	-171.004	35.366	-19.8213	-157.326	41.4652	-41.9284	-149.845	50.3623	-58.6864	-153.293	45.6064	-0.029623	-139.443	56.5504	-9.62848	-128.747	69.7091	-22.2383	-186.74	18.9926	15.8299	-192.645	12.2715	35.0406	-214.003	14.6766	16.1214	
68	0.566667	-242.063	40.8885	24.9407	-251.728	64.0702	13.4992	-257.72	76.9285	-0.26377	-265.586	94.3413	-15.1481	-220.821	28.7277	-38.5765	-220.094	33.499	-65.8049	-217.635	44.2641	-83.6772	-192.539	22.0077	-35.0583	-183.209	21.9523	-58.2576	-176.306	29.9348	-83.1518	-178.194	27.8678	-22.6028	-164.682	27.7458	-45.5124	-154.864	32.7224	-62.6923	-157.037	40.8719	-5.07542	-144.896	47.1649	-21.5581	-135.82	54.897	-36.7625	-189.352	21.8245	11.4485	-191.324	15.3223	36.6323	-214.576	17.6499	16.7174	
69	0.575	-243.105	45.9915	24.8118	-251.07	67.0509	4.04112	-261.273	77.683	-11.0135	-267.408	90.8578	-26.1782	-238.084	16.1183	-34.9765	-236.764	15.5346	-62.4745	-235.74	22.3857	-83.2765	-206.608	5.25481	-34.1945	-200.691	-1.81245	-55.4367	-195.333	1.28375	-84.7834	-187.411	13.1119	-22.3737	-179.274	4.75094	-42.9259	-176.158	4.78909	-65.9274	-166.992	25.9975	-11.3824	-156.781	25.8827	-28.7535	-146.134	28.3422	-42.9501	-197.248	17.5738	16.5702	-198.379	20.0005	42.084	-223.861	18.1674	21.8392	
70	0.583333	-249.655	56.2991	25.2877	-247.245	70.4794	2.07238	-258.422	82.1091	-15.5663	-264.38	91.292	-34.1639	-257.012	13.3404	-25.4779	-262.116	8.77386	-46.9726	-259.024	10.6207	-76.3598	-233.527	-1.64251	-22.964	-230.083	-16.4318	-44.8381	-230.585	-19.0619	-72.519	-208.703	-0.287436	-14.5416	-208.581	-15.4025	-39.55	-204.725	-20.0526	-62.7832	-183.283	7.73723	-9.48285	-173.008	2.89816	-23.2138	-167.886	-1.07059	-47.0769	-210.624	13.1323	18.7281	-213.549	22.9023	44.2194	-236.75	23.0715	29.0315	
71	0.591667	-248.515	66.7323	25.1335	-243.298	80.1518	4.22011	-249.362	85.9482	-17.3306	-255.029	97.1149	-36.1788	-271.612	21.0677	-14.2909	-282.557	16.6029	-37.7356	-284.349	15.7429	-62.9221	-258.126	1.61106	-7.99352	-266.773	-13.8318	-29.1751	-267.826	-22.8326	-58.638	-237.93	-4.76009	-5.33778	-241.696	-19.3384	-20.6161	-244.172	-29.7812	-47.2618	-208.762	-0.589816	1.6973	-203.753	-16.0803	-16.174	-200.719	-25.4703	-37.5135	-228.254	14.2066	25.8456	-222.912	24.6998	50.1401	-250.441	34.5124	36.084	
72	0.6	-241.367	78.8583	31.0601	-236.267	84.5335	3.92506	-241.605	94.9951	-16.0679	-244.253	98.6148	-36.9641	-288.057	41.7754	-3.89609	-301.372	37.8474	-24.2324	-307.076	39.5301	-47.4044	-282.009	14.9642	1.00033	-296.133	1.46898	-18.7654	-302.875	-5.59583	-42.3899	-263.815	4.08677	4.66682	-278.928	-8.87636	-12.012	-287.556	-15.7187	-34.0354	-239.91	-1.47424	7.00917	-239.626	-19.8721	-6.55862	-239.738	-32.215	-26.5314	-243.935	19.9153	35.4663	-233.072	31.3188	57.6697	-254.03	46.4463	43.7108	
73	0.608333	-233.505	82.0821	31.4569	-230.532	84.9691	1.23385	-230.999	96.2171	-20.927	-228.092	104.293	-37.2291	-290.134	69.3859	0.0955842	-307.335	73.0292	-21.0083	-313.522	70.3871	-46.4557	-295.077	43.6591	4.38593	-314.106	34.7169	-10.9836	-326.905	27.963	-39.4841	-282.515	25.6024	7.99718	-303.397	16.8754	-9.97248	-314.2	10.4909	-30.1848	-266.151	5.69481	7.82762	-271.658	-9.75176	-5.07106	-280.531	-14.833	-26.6996	-259.365	34.0015	34.0832	-244.275	32.2234	54.0173	-257.699	58.1774	42.882	
